<?xml version="1.0" standalone="no"?><!DOCTYPE svg PUBLIC "-//W3C//DTD SVG 1.1//EN" "http://www.w3.org/Graphics/SVG/1.1/DTD/svg11.dtd"><svg t="1585120996899" class="icon" viewBox="0 0 1024 1024" version="1.1" xmlns="http://www.w3.org/2000/svg" p-id="9310" xmlns:xlink="http://www.w3.org/1999/xlink" width="200" height="200"><defs><style type="text/css"></style></defs><path d="M899.552 160.704l-38.88-116.96c-8.672-26.144-33.12-43.744-60.672-43.744l-576 0c-27.584 0-52 17.6-60.736 43.744l-39.2 117.024c-33.408 2.144-60.064 29.28-60.064 63.232l0 96c0 35.328 28.672 64 64 64l33.088 0c0 2.4-0.96 4.672-0.672 7.072l64 576c3.584 32.352 30.944 56.928 63.584 56.928l448 0c32.64 0 60-24.576 63.552-56.928l64-576c0.32-2.4-0.672-4.672-0.672-7.072l33.12 0c35.328 0 64-28.672 64-64l0-96c0-34.08-26.88-61.344-60.448-63.296zM224 64l576 0 32 96-640 0 32-96zM288 960l-10.656-96 469.312 0-10.656 96-448 0zM750.176 832l-476.416 0-35.552-320 547.552 0-35.584 320zM789.312 480l-554.656 0-10.656-96 576 0-10.688 96zM896 320l-768 0 0-96 768 0 0 96z" p-id="9311"></path></svg>